<svg width="224" height="224" viewBox="0 0 224 224" fill="none" xmlns="http://www.w3.org/2000/svg">
<circle cx="112" cy="112" r="77.5" stroke="#323232" stroke-width="2"/>
<circle cx="112" cy="112" r="111.5" stroke="#323232" stroke-width="2"/>
<circle cx="112" cy="112" r="58" fill="#191919"/>
<path d="M122.745 77.9099C122.745 77.9099 122.675 77.9099 122.64 77.9099C122.605 77.9099 122.57 77.9099 122.535 77.9099H101.535C101.535 77.9099 101.465 77.9099 101.43 77.9099H101.325C94.1853 78.0499 88.4453 83.8599 88.4453 91.0349V133.035C88.4453 140.28 94.3253 146.16 101.57 146.16H122.57C129.815 146.16 135.695 140.28 135.695 133.035V90.9999C135.695 83.8599 129.92 78.0149 122.815 77.9099H122.745ZM118.265 83.1249L117.635 84.3849C117.495 84.6999 117.18 84.8749 116.865 84.8749H107.205C106.855 84.8749 106.575 84.6999 106.435 84.3849L105.805 83.1249H118.3H118.265ZM130.375 133C130.375 137.34 126.84 140.875 122.5 140.875H101.5C97.1603 140.875 93.6253 137.34 93.6253 133V90.9999C93.6253 87.1849 96.3553 83.9999 99.9603 83.2649L101.675 86.7299C102.725 88.8299 104.825 90.1249 107.17 90.1249H116.83C119.175 90.1249 121.275 88.8299 122.325 86.7299L124.04 83.2649C127.645 83.9999 130.375 87.1849 130.375 90.9999V133Z" fill="#16A34A"/>
<path d="M112.07 116.375H112.035C110.6 116.375 109.445 117.565 109.445 119C109.445 120.435 110.635 121.625 112.07 121.625C113.505 121.625 114.695 120.435 114.695 119C114.695 117.565 113.505 116.375 112.07 116.375Z" fill="#16A34A"/>
<path d="M105.21 112.21C104.195 113.225 104.195 114.905 105.21 115.92C106.225 116.935 107.905 116.935 108.92 115.92C110.565 114.275 113.435 114.275 115.115 115.92C115.64 116.445 116.305 116.69 116.97 116.69C117.635 116.69 118.3 116.445 118.825 115.92C119.84 114.905 119.84 113.225 118.825 112.21C115.185 108.57 108.85 108.57 105.21 112.21Z" fill="#16A34A"/>
<path d="M100.24 107.24C99.2248 108.255 99.2248 109.935 100.24 110.95C101.255 111.965 102.935 111.965 103.95 110.95C108.395 106.505 115.605 106.505 120.05 110.95C120.575 111.475 121.24 111.72 121.905 111.72C122.57 111.72 123.235 111.475 123.76 110.95C124.775 109.935 124.775 108.255 123.76 107.24C117.285 100.765 106.715 100.765 100.24 107.24Z" fill="#16A34A"/>
</svg>
