<svg width="224" height="224" viewBox="0 0 224 224" fill="none" xmlns="http://www.w3.org/2000/svg">
<circle cx="112" cy="112" r="77.5" stroke="#323232" stroke-width="2"/>
<circle cx="112" cy="112" r="111.5" stroke="#323232" stroke-width="2"/>
<circle cx="112" cy="112" r="58" fill="#191919"/>
<path d="M141.855 100.695L122.15 81.9C116.55 76.545 107.415 76.545 101.815 81.9L82.145 100.695C79.415 103.285 77.875 106.89 77.875 110.565V132.195C77.875 139.86 84.35 146.09 92.33 146.09H131.705C139.65 146.09 146.16 139.86 146.16 132.195V110.565C146.16 106.89 144.62 103.285 141.89 100.695H141.855ZM140.875 132.23C140.875 136.99 136.745 140.875 131.67 140.875H92.33C87.255 140.875 83.125 136.99 83.125 132.23V110.6C83.125 108.325 84.07 106.155 85.785 104.51L105.49 85.715C107.31 84 109.655 83.125 112.035 83.125C114.415 83.125 116.76 84 118.58 85.715L138.285 104.51C140 106.155 140.945 108.29 140.945 110.6V132.23H140.875Z" fill="#16A34A"/>
<path d="M112.07 123.375H112.035C110.6 123.375 109.445 124.565 109.445 126C109.445 127.435 110.635 128.625 112.07 128.625C113.505 128.625 114.695 127.435 114.695 126C114.695 124.565 113.505 123.375 112.07 123.375Z" fill="#16A34A"/>
<path d="M111.999 112.875C108.289 112.875 104.719 114.485 102.234 117.25C101.254 118.335 101.359 119.98 102.444 120.96C103.529 121.94 105.174 121.835 106.154 120.75C109.129 117.425 114.904 117.425 117.879 120.75C118.404 121.345 119.104 121.625 119.839 121.625C120.469 121.625 121.099 121.415 121.589 120.96C122.674 119.98 122.744 118.335 121.799 117.25C119.314 114.485 115.744 112.875 112.034 112.875H111.999Z" fill="#16A34A"/>
<path d="M112 102.375C105.28 102.375 98.8746 105.245 94.3946 110.25C93.4146 111.335 93.5196 112.98 94.6046 113.96C95.6896 114.94 97.3346 114.835 98.3146 113.75C101.815 109.865 106.785 107.625 112 107.625C117.215 107.625 122.22 109.865 125.685 113.75C126.21 114.345 126.91 114.625 127.645 114.625C128.275 114.625 128.905 114.415 129.395 113.96C130.48 112.98 130.55 111.335 129.605 110.25C125.125 105.245 118.72 102.375 112 102.375Z" fill="#16A34A"/>
</svg>
