<svg width="224" height="224" viewBox="0 0 224 224" fill="none" xmlns="http://www.w3.org/2000/svg">
<circle cx="112" cy="112" r="77.5" stroke="#323232" stroke-width="2"/>
<circle cx="112" cy="112" r="111.5" stroke="#323232" stroke-width="2"/>
<circle cx="112" cy="112" r="58" fill="#191919"/>
<path d="M131.354 103.145C130.339 102.13 128.659 102.13 127.644 103.145C126.629 104.16 126.629 105.84 127.644 106.855C129.394 108.605 130.374 111.09 130.374 113.75C130.374 116.41 129.394 118.895 127.644 120.645C126.629 121.66 126.629 123.34 127.644 124.355C128.169 124.88 128.834 125.125 129.499 125.125C130.164 125.125 130.829 124.88 131.354 124.355C134.084 121.625 135.624 117.775 135.624 113.75C135.624 109.725 134.084 105.875 131.354 103.145Z" fill="#16A34A"/>
<path d="M138.249 96.0401C137.164 95.0601 135.519 95.1651 134.539 96.2501C133.559 97.3351 133.664 98.9801 134.749 99.9601C138.634 103.46 140.874 108.43 140.874 113.645C140.874 118.86 138.634 123.865 134.749 127.33C133.664 128.31 133.594 129.955 134.539 131.04C135.064 131.635 135.764 131.915 136.499 131.915C137.129 131.915 137.759 131.705 138.249 131.25C143.254 126.77 146.124 120.365 146.124 113.645C146.124 106.925 143.254 100.52 138.249 96.0401Z" fill="#16A34A"/>
<path d="M101.5 77.875C90.405 77.875 81.375 86.905 81.375 98V119C81.375 125.09 84.105 130.585 88.41 134.26C84.35 135.38 81.375 139.09 81.375 143.5C81.375 144.935 82.565 146.125 84 146.125H119C120.435 146.125 121.625 144.935 121.625 143.5C121.625 139.09 118.615 135.415 114.59 134.26C118.895 130.55 121.625 125.09 121.625 119V98C121.625 86.905 112.595 77.875 101.5 77.875ZM112 139.125C113.435 139.125 114.695 139.825 115.5 140.875H87.5C88.305 139.825 89.565 139.125 91 139.125H112ZM116.375 119C116.375 127.19 109.69 133.875 101.5 133.875C93.31 133.875 86.625 127.19 86.625 119V98C86.625 89.81 93.31 83.125 101.5 83.125C109.69 83.125 116.375 89.81 116.375 98V119Z" fill="#16A34A"/>
<path d="M101.5 88.375C96.18 88.375 91.875 92.68 91.875 98C91.875 103.32 96.18 107.625 101.5 107.625C106.82 107.625 111.125 103.32 111.125 98C111.125 92.68 106.82 88.375 101.5 88.375ZM101.5 102.375C99.085 102.375 97.125 100.415 97.125 98C97.125 95.585 99.085 93.625 101.5 93.625C103.915 93.625 105.875 95.585 105.875 98C105.875 100.415 103.915 102.375 101.5 102.375Z" fill="#16A34A"/>
<path d="M105 123.375H98C96.565 123.375 95.375 124.565 95.375 126C95.375 127.435 96.565 128.625 98 128.625H105C106.435 128.625 107.625 127.435 107.625 126C107.625 124.565 106.435 123.375 105 123.375Z" fill="#323232"/>
</svg>
