<svg width="224" height="224" viewBox="0 0 224 224" fill="none" xmlns="http://www.w3.org/2000/svg">
<circle cx="112" cy="112" r="77.5" stroke="#323232" stroke-width="2"/>
<circle cx="112" cy="112" r="111.5" stroke="#323232" stroke-width="2"/>
<circle cx="112" cy="112" r="58" fill="#191919"/>
<path d="M112.035 98.875C110.6 98.875 109.445 100.065 109.445 101.5C109.445 102.935 110.635 104.125 112.07 104.125C113.505 104.125 114.695 102.935 114.695 101.5C114.695 100.065 113.505 98.875 112.07 98.875H112.035Z" fill="#16A34A"/>
<path d="M119.84 97.125C120.47 97.125 121.1 96.915 121.59 96.46C122.675 95.48 122.745 93.835 121.8 92.75C119.315 89.985 115.745 88.375 112.035 88.375C108.325 88.375 104.755 89.985 102.27 92.75C101.29 93.835 101.395 95.48 102.48 96.46C103.565 97.44 105.21 97.335 106.19 96.25C109.165 92.925 114.94 92.925 117.915 96.25C118.44 96.845 119.14 97.125 119.875 97.125H119.84Z" fill="#16A34A"/>
<path d="M98.3146 89.25C101.815 85.365 106.785 83.125 112 83.125C117.215 83.125 122.22 85.365 125.685 89.25C126.21 89.845 126.91 90.125 127.645 90.125C128.275 90.125 128.905 89.915 129.395 89.46C130.48 88.48 130.55 86.835 129.605 85.75C125.125 80.745 118.72 77.875 112 77.875C105.28 77.875 98.8746 80.745 94.3946 85.75C93.4146 86.835 93.5196 88.48 94.6046 89.46C95.6896 90.44 97.3346 90.335 98.3146 89.25Z" fill="#16A34A"/>
<path d="M135.625 123.48V108.5C135.625 105.14 132.86 102.375 129.5 102.375C126.14 102.375 123.375 105.14 123.375 108.5V123.375H100.625V108.5C100.625 105.14 97.86 102.375 94.5 102.375C91.14 102.375 88.375 105.14 88.375 108.5V123.48C84.455 123.935 81.375 127.225 81.375 131.25V138.25C81.375 142.59 84.91 146.125 89.25 146.125H134.75C139.09 146.125 142.625 142.59 142.625 138.25V131.25C142.625 127.225 139.545 123.9 135.625 123.48ZM128.625 108.5C128.625 107.52 130.375 107.52 130.375 108.5V123.375H128.625V108.5ZM93.625 108.5C93.625 107.52 95.375 107.52 95.375 108.5V123.375H93.625V108.5ZM137.375 138.25C137.375 139.685 136.185 140.875 134.75 140.875H89.25C87.815 140.875 86.625 139.685 86.625 138.25V131.25C86.625 129.815 87.815 128.625 89.25 128.625H134.75C136.185 128.625 137.375 129.815 137.375 131.25V138.25Z" fill="#16A34A"/>
<path d="M129.57 133.875H129.535C128.1 133.875 126.945 135.065 126.945 136.5C126.945 137.935 128.135 139.125 129.57 139.125C131.005 139.125 132.195 137.935 132.195 136.5C132.195 135.065 131.005 133.875 129.57 133.875Z" fill="#323232"/>
<path d="M122.57 133.875H122.535C121.1 133.875 119.945 135.065 119.945 136.5C119.945 137.935 121.135 139.125 122.57 139.125C124.005 139.125 125.195 137.935 125.195 136.5C125.195 135.065 124.005 133.875 122.57 133.875Z" fill="#323232"/>
<path d="M115.57 133.875H115.535C114.1 133.875 112.945 135.065 112.945 136.5C112.945 137.935 114.135 139.125 115.57 139.125C117.005 139.125 118.195 137.935 118.195 136.5C118.195 135.065 117.005 133.875 115.57 133.875Z" fill="#323232"/>
</svg>
